<?xml version="1.0" standalone="no"?>
<!DOCTYPE svg PUBLIC "-//W3C//DTD SVG 1.1//EN" "http://www.w3.org/Graphics/SVG/1.1/DTD/svg11.dtd">
<svg version="1.1" xmlns="http://www.w3.org/2000/svg" viewBox="0 0 1251.606499176109 517.392383220199" width="3754.8194975283272" height="1552.177149660597"><!-- svg-source:excalidraw --><metadata></metadata><defs><style class="style-fonts">
      </style></defs><rect x="0" y="0" width="1251.606499176109" height="517.392383220199" fill="#ffffff"></rect><g stroke-linecap="round" transform="translate(10 149.24769174132325) rotate(0 185.95178959804753 47.56909560178792)"><path d="M23.78 0 C132.17 2.12, 246.59 1.72, 348.12 0 C360.51 -2.19, 371.81 4.54, 371.9 23.78 C374.29 43.87, 369.17 62.52, 371.9 71.35 C373.62 86.49, 362.62 92.43, 348.12 95.14 C282.6 92.1, 214.99 92.19, 23.78 95.14 C4.42 97.5, -0.81 87.81, 0 71.35 C-3.63 54.02, -1.85 39.83, 0 23.78 C1.69 9.21, 11.08 -2.82, 23.78 0" stroke="none" stroke-width="0" fill="#a5d8ff"></path><path d="M23.78 0 C108.68 -0.13, 195.25 0.8, 348.12 0 M23.78 0 C115.61 -0.17, 207.32 -0.13, 348.12 0 M348.12 0 C363.23 -1.39, 373.04 8.09, 371.9 23.78 M348.12 0 C364.58 -2.15, 370.24 9.21, 371.9 23.78 M371.9 23.78 C373.93 35.86, 372.05 44.74, 371.9 71.35 M371.9 23.78 C371.7 41.66, 371.4 57.99, 371.9 71.35 M371.9 71.35 C373.7 85.35, 364.98 95.06, 348.12 95.14 M371.9 71.35 C371.95 87.37, 362.45 93.58, 348.12 95.14 M348.12 95.14 C280.13 95.45, 209.52 94.76, 23.78 95.14 M348.12 95.14 C252.37 95.42, 155.83 94.28, 23.78 95.14 M23.78 95.14 C7.13 96.21, -1.29 87.36, 0 71.35 M23.78 95.14 C9.56 97.35, 0.14 88.53, 0 71.35 M0 71.35 C0.8 55.35, -0.79 41.74, 0 23.78 M0 71.35 C-0.38 57.57, 0.45 42.93, 0 23.78 M0 23.78 C1.86 9.39, 6.76 -0.87, 23.78 0 M0 23.78 C1.78 10.09, 5.86 -1.12, 23.78 0" stroke="#1e1e1e" stroke-width="4" fill="none"></path></g><g transform="translate(87.95178959804753 174.31678734311117) rotate(0 108 22.5)"><text x="108" y="31.5" font-family="Comic Shanns, monospace, Segoe UI Emoji" font-size="36px" fill="#1e1e1e" text-anchor="middle" style="white-space: pre;" direction="ltr" dominant-baseline="alphabetic">定点数的表示</text></g><g stroke-linecap="round"><g transform="translate(388.9035791960953 192.86332724240629) rotate(0 123.8207416414698 -70.49375586567612)"><path d="M0.08 -0.38 C41.58 -23.89, 207.55 -117.34, 248.98 -140.61 M-1.34 -1.63 C40.09 -24.98, 206.89 -115.73, 248.47 -139.13" stroke="#1e1e1e" stroke-width="4" fill="none"></path></g><g transform="translate(388.9035791960953 192.86332724240629) rotate(0 123.8207416414698 -70.49375586567612)"><path d="M232.04 -120.29 C236.19 -124.48, 241.48 -130.62, 248.47 -139.13 M232.04 -120.29 C238.5 -126.83, 243.75 -132.54, 248.47 -139.13" stroke="#1e1e1e" stroke-width="4" fill="none"></path></g><g transform="translate(388.9035791960953 192.86332724240629) rotate(0 123.8207416414698 -70.49375586567612)"><path d="M223.77 -135.26 C230.43 -135.03, 238.16 -136.74, 248.47 -139.13 M223.77 -135.26 C233.19 -136.72, 241.27 -137.29, 248.47 -139.13" stroke="#1e1e1e" stroke-width="4" fill="none"></path></g></g><mask></mask><g stroke-linecap="round" transform="translate(653.4798517339009 10) rotate(0 197.19549335199304 34.16323401396494)"><path d="M17.08 0 C89.18 4.44, 161.62 1.97, 377.31 0 C387.01 -3.18, 392.36 3.01, 394.39 17.08 C392.92 27.62, 397.74 46, 394.39 51.24 C397.12 59.03, 389.65 70.55, 377.31 68.33 C276.64 69.55, 169.96 67.54, 17.08 68.33 C9.09 70.01, 1.7 59.71, 0 51.24 C-0.64 40.11, -0.89 28.31, 0 17.08 C3.54 4.6, 6.71 1.04, 17.08 0" stroke="none" stroke-width="0" fill="#b2f2bb"></path><path d="M17.08 0 C120.06 -0.86, 226.12 -1.69, 377.31 0 M17.08 0 C129.13 -1.36, 241.43 -1.27, 377.31 0 M377.31 0 C390.09 -1.74, 392.76 3.95, 394.39 17.08 M377.31 0 C387.52 -1.15, 396.64 7.98, 394.39 17.08 M394.39 17.08 C394.84 27.84, 395.55 37.98, 394.39 51.24 M394.39 17.08 C393.86 26.87, 394.69 36.28, 394.39 51.24 M394.39 51.24 C396.17 63.64, 389 66.93, 377.31 68.33 M394.39 51.24 C394.17 60.43, 389.06 67.87, 377.31 68.33 M377.31 68.33 C281.37 68.52, 185.1 70.15, 17.08 68.33 M377.31 68.33 C284.7 68.26, 192.44 68.63, 17.08 68.33 M17.08 68.33 C5.53 68.15, 0.71 62.9, 0 51.24 M17.08 68.33 C7.83 67.32, -1.2 61.3, 0 51.24 M0 51.24 C-0.72 40.23, -0.26 31.46, 0 17.08 M0 51.24 C0.79 37.47, -0.3 24.72, 0 17.08 M0 17.08 C-1.62 6.65, 3.95 -1.86, 17.08 0 M0 17.08 C1.99 7.45, 3.99 -0.59, 17.08 0" stroke="#1e1e1e" stroke-width="4" fill="none"></path></g><g transform="translate(778.6753450858937 21.66323401396494) rotate(0 72 22.5)"><text x="72" y="31.5" font-family="Comic Shanns, monospace, Segoe UI Emoji" font-size="36px" fill="#1e1e1e" text-anchor="middle" style="white-space: pre;" direction="ltr" dominant-baseline="alphabetic">无符号数</text></g><g stroke-linecap="round"><g transform="translate(388.9035791960953 200.48347230791705) rotate(0 120.69582840509759 63.5623751567357)"><path d="M0.2 -1.08 C40.73 20, 202.15 105.35, 242.55 126.76 M-1.16 0.97 C39.23 22.21, 200.92 107.49, 241.38 128.2" stroke="#1e1e1e" stroke-width="4" fill="none"></path></g><g transform="translate(388.9035791960953 200.48347230791705) rotate(0 120.69582840509759 63.5623751567357)"><path d="M216.6 124.94 C220.97 125.03, 228.64 125.92, 241.38 128.2 M216.6 124.94 C224.58 126.39, 233.68 127.77, 241.38 128.2" stroke="#1e1e1e" stroke-width="4" fill="none"></path></g><g transform="translate(388.9035791960953 200.48347230791705) rotate(0 120.69582840509759 63.5623751567357)"><path d="M224.5 109.77 C226.94 113.64, 232.64 118.3, 241.38 128.2 M224.5 109.77 C229.79 116.29, 236.24 122.76, 241.38 128.2" stroke="#1e1e1e" stroke-width="4" fill="none"></path></g></g><mask></mask><g stroke-linecap="round" transform="translate(637.046953342 298.8740103082846) rotate(0 143.57212618394237 32.000957405222834)"><path d="M16 0 C71.9 0.95, 133.36 3.25, 271.14 0 C284.31 1.58, 286.15 4.39, 287.14 16 C283.22 28.3, 283.5 38.4, 287.14 48 C286.61 56.8, 281.36 64.11, 271.14 64 C173.12 65.95, 78.72 65.45, 16 64 C4.01 63.91, -2.49 58.02, 0 48 C0.54 37.28, -1.64 28.61, 0 16 C2.24 2.49, 1.9 -0.06, 16 0" stroke="none" stroke-width="0" fill="#b2f2bb"></path><path d="M16 0 C85.97 1.51, 152.47 -0.39, 271.14 0 M16 0 C101.89 -0.13, 188.35 -0.29, 271.14 0 M271.14 0 C281.92 1.31, 288.25 6.24, 287.14 16 M271.14 0 C280.05 -1.25, 285.96 5.52, 287.14 16 M287.14 16 C286.77 22.85, 288.39 31.76, 287.14 48 M287.14 16 C287.05 22.67, 288.12 28.44, 287.14 48 M287.14 48 C288.63 58.15, 283.44 63.03, 271.14 64 M287.14 48 C285.43 58.93, 281.71 62.69, 271.14 64 M271.14 64 C216.99 64.51, 161.29 64.71, 16 64 M271.14 64 C208.05 66.58, 145.63 65.69, 16 64 M16 64 C3.73 65.31, 1.86 57.77, 0 48 M16 64 C7.15 63.94, 0.9 56.55, 0 48 M0 48 C0.4 41.76, -0.54 32.94, 0 16 M0 48 C0.38 40.45, 0.5 30.91, 0 16 M0 16 C-0.86 5.08, 4.95 0.97, 16 0 M0 16 C1.4 6.08, 6.36 -0.85, 16 0" stroke="#1e1e1e" stroke-width="4" fill="none"></path></g><g transform="translate(708.6190795259427 308.37496771350743) rotate(0 72 22.5)"><text x="72" y="31.5" font-family="Comic Shanns, monospace, Segoe UI Emoji" font-size="36px" fill="#1e1e1e" text-anchor="middle" style="white-space: pre;" direction="ltr" dominant-baseline="alphabetic">有符号数</text></g><g stroke-linecap="round"><g transform="translate(926.7857238456204 330.8749677135079) rotate(0 40.47469194677069 -0.3917775139159403)"><path d="M-0.69 -0.11 C13.11 -0.37, 68.11 -0.85, 81.64 -1.02 M1.14 -1.21 C14.92 -1.33, 67.24 0.23, 80.87 0.43" stroke="#1e1e1e" stroke-width="4" fill="none"></path></g></g><mask></mask><g stroke-linecap="round"><g transform="translate(1009.8211280164696 186.43784378450118) rotate(0 1.362317922103557 146.57195512009685)"><path d="M-0.64 0.76 C-0.27 49.52, 0.73 243, 1.01 291.79 M1.23 0.11 C2.08 49.09, 3.55 244.43, 3.34 293.04" stroke="#1e1e1e" stroke-width="4" fill="none"></path></g></g><mask></mask><g stroke-linecap="round"><g transform="translate(1013.3130109977842 185.5730835891659) rotate(0 44.73672439809161 -0.8950600130310704)"><path d="M0.86 -0.06 C15.35 -0.34, 72.84 -1.59, 87.34 -1.73 M-0.14 -1.13 C14.68 -1.21, 75.1 0.09, 89.61 -0.2" stroke="#1e1e1e" stroke-width="4" fill="none"></path></g></g><mask></mask><g stroke-linecap="round"><g transform="translate(1016.1073381844112 289.3903643124345) rotate(0 43.73825881768221 -0.6470055637707901)"><path d="M-0.56 0.35 C13.94 -0.06, 73.34 -1.48, 88.04 -1.64 M1.34 -0.52 C15.59 -0.78, 72.81 0.25, 87.02 -0.06" stroke="#1e1e1e" stroke-width="4" fill="none"></path></g></g><mask></mask><g stroke-linecap="round"><g transform="translate(1015.2424988058333 384.52855551601124) rotate(0 44.03936098174859 -0.428397303616066)"><path d="M0.68 0.86 C15.51 0.39, 73.8 -1.33, 88.5 -1.72 M-0.42 0.27 C14.33 0.51, 72.92 -0.12, 87.73 -0.18" stroke="#1e1e1e" stroke-width="4" fill="none"></path></g></g><mask></mask><g stroke-linecap="round"><g transform="translate(1010.0529874349068 480.53150691492215) rotate(0 47.98906530742943 -0.49093472788240433)"><path d="M-0.03 0.6 C16.31 0.36, 81.24 -1.1, 97.48 -1.59 M-1.5 -0.12 C14.71 -0.13, 80.09 0.23, 96.43 0.03" stroke="#1e1e1e" stroke-width="4" fill="none"></path></g></g><mask></mask><g stroke-linecap="round" transform="translate(1098.8991331875022 159.62631856696225) rotate(0 70.9211841217716 27.5)"><path d="M13.75 0 C44.36 4, 71.11 -0.03, 128.09 0 C137.61 -0.62, 138.83 1.02, 141.84 13.75 C139.93 20.3, 144.33 32.64, 141.84 41.25 C144.36 53.15, 137.17 53.21, 128.09 55 C100.76 53.06, 75.55 56.56, 13.75 55 C2.81 52.85, 3.03 50.39, 0 41.25 C-2.89 33.16, 2.23 27.26, 0 13.75 C-2.06 4.65, 0.99 -3.18, 13.75 0" stroke="none" stroke-width="0" fill="#b2f2bb"></path><path d="M13.75 0 C41.71 0.99, 70.04 0.57, 128.09 0 M13.75 0 C47.59 -0.88, 81.73 0.54, 128.09 0 M128.09 0 C137.29 1.07, 143.27 5.4, 141.84 13.75 M128.09 0 C138.03 -2.15, 142.9 2.6, 141.84 13.75 M141.84 13.75 C143.02 21.9, 141.28 28.67, 141.84 41.25 M141.84 13.75 C140.83 20.15, 142.04 27.92, 141.84 41.25 M141.84 41.25 C140.17 51.79, 135.79 56.35, 128.09 55 M141.84 41.25 C144 48.48, 137.73 56.7, 128.09 55 M128.09 55 C96.74 55.27, 61.05 53.97, 13.75 55 M128.09 55 C105.06 54.43, 81.93 53.49, 13.75 55 M13.75 55 C4.53 56.66, -0.75 50.65, 0 41.25 M13.75 55 C2.8 53.51, -0.44 49.33, 0 41.25 M0 41.25 C0.68 28.83, 1.05 18.31, 0 13.75 M0 41.25 C0.31 30.41, -0.36 22.49, 0 13.75 M0 13.75 C0.27 3.94, 3.54 1.22, 13.75 0 M0 13.75 C-2.15 3.41, 3.46 0.33, 13.75 0" stroke="#1e1e1e" stroke-width="4" fill="none"></path></g><g transform="translate(1133.8203173092738 164.62631856696225) rotate(0 36 22.5)"><text x="36" y="31.5" font-family="Comic Shanns, monospace, Segoe UI Emoji" font-size="36px" fill="#1e1e1e" text-anchor="middle" style="white-space: pre;" direction="ltr" dominant-baseline="alphabetic">原码</text></g><g stroke-linecap="round" transform="translate(1099.7641309325659 256.06180843002676) rotate(0 70.9211841217716 27.5)"><path d="M13.75 0 C42.21 2.11, 71.61 1.92, 128.09 0 C138.54 3.06, 144.19 6.38, 141.84 13.75 C138.94 25.21, 137.81 31.79, 141.84 41.25 C139.5 50.64, 139.85 53.35, 128.09 55 C83.71 50.72, 46.11 53.06, 13.75 55 C5.76 58.06, 2.49 52.68, 0 41.25 C2.1 32.56, 2.29 24.79, 0 13.75 C3.5 3.86, 7.87 -3.57, 13.75 0" stroke="none" stroke-width="0" fill="#b2f2bb"></path><path d="M13.75 0 C51.75 2.21, 91.75 2.8, 128.09 0 M13.75 0 C40.69 0.19, 67.78 0.85, 128.09 0 M128.09 0 C137.43 0.39, 140.65 3.05, 141.84 13.75 M128.09 0 C137.28 -0.91, 143.67 6.51, 141.84 13.75 M141.84 13.75 C140.27 21.56, 140.98 33.53, 141.84 41.25 M141.84 13.75 C142.4 21.35, 141.42 28.06, 141.84 41.25 M141.84 41.25 C141.96 49.74, 137.27 56.7, 128.09 55 M141.84 41.25 C141.93 49.85, 137.87 56.81, 128.09 55 M128.09 55 C94.78 55.9, 60.9 53.77, 13.75 55 M128.09 55 C93.07 55.79, 58.94 54.93, 13.75 55 M13.75 55 C3.88 56.38, 0.2 49.09, 0 41.25 M13.75 55 C6.72 56.44, -0.26 51.38, 0 41.25 M0 41.25 C1.75 35.58, 0.92 29.69, 0 13.75 M0 41.25 C0.04 31.84, -0.69 23.11, 0 13.75 M0 13.75 C-1.09 5.46, 5.99 1.56, 13.75 0 M0 13.75 C2.11 3.27, 4.42 0.57, 13.75 0" stroke="#1e1e1e" stroke-width="4" fill="none"></path></g><g transform="translate(1134.6853150543375 261.06180843002676) rotate(0 36 22.5)"><text x="36" y="31.5" font-family="Comic Shanns, monospace, Segoe UI Emoji" font-size="36px" fill="#1e1e1e" text-anchor="middle" style="white-space: pre;" direction="ltr" dominant-baseline="alphabetic">反码</text></g><g stroke-linecap="round" transform="translate(1099.7641309325659 354.6595155144023) rotate(0 70.9211841217716 27.5)"><path d="M13.75 0 C61.2 0.05, 105.2 -4.92, 128.09 0 C136.84 -2.47, 144.11 0.99, 141.84 13.75 C144.11 20.09, 143.67 29.54, 141.84 41.25 C140.16 47.16, 133.94 55.27, 128.09 55 C99.38 59.01, 67.4 56.74, 13.75 55 C6.44 57.1, 0.87 52.7, 0 41.25 C2.8 27.41, 0.28 23.54, 0 13.75 C-3.57 2.64, 3.68 1.15, 13.75 0" stroke="none" stroke-width="0" fill="#b2f2bb"></path><path d="M13.75 0 C57.29 -1.43, 102.02 -2.19, 128.09 0 M13.75 0 C50.89 -0.99, 89.24 -0.62, 128.09 0 M128.09 0 C138.85 1.67, 142.93 6.32, 141.84 13.75 M128.09 0 C136.9 -2.09, 139.61 3.32, 141.84 13.75 M141.84 13.75 C140.28 23.04, 143.39 29.72, 141.84 41.25 M141.84 13.75 C141.87 25.05, 141.9 34.41, 141.84 41.25 M141.84 41.25 C142.38 51.99, 137.23 55.91, 128.09 55 M141.84 41.25 C140.98 51.39, 138.79 56.3, 128.09 55 M128.09 55 C99.08 54.33, 69.45 55.61, 13.75 55 M128.09 55 C99.2 55.12, 71.03 56.41, 13.75 55 M13.75 55 C4.35 55.84, -1.54 51.13, 0 41.25 M13.75 55 C3.78 57.13, 0.53 51.59, 0 41.25 M0 41.25 C0.23 31.94, 0.11 21.26, 0 13.75 M0 41.25 C0.85 31.24, 1.07 19.09, 0 13.75 M0 13.75 C-0.14 5.08, 3.38 1.16, 13.75 0 M0 13.75 C1.66 5.26, 6.88 1.95, 13.75 0" stroke="#1e1e1e" stroke-width="4" fill="none"></path></g><g transform="translate(1134.6853150543375 359.6595155144023) rotate(0 36 22.5)"><text x="36" y="31.5" font-family="Comic Shanns, monospace, Segoe UI Emoji" font-size="36px" fill="#1e1e1e" text-anchor="middle" style="white-space: pre;" direction="ltr" dominant-baseline="alphabetic">补码</text></g><g stroke-linecap="round" transform="translate(1099.7641309325659 452.392383220199) rotate(0 70.9211841217716 27.5)"><path d="M13.75 0 C40.26 -2.19, 61.89 -0.93, 128.09 0 C137.48 2.59, 140.2 6.73, 141.84 13.75 C138.3 22.13, 140.63 31.14, 141.84 41.25 C144.9 52.9, 139.52 56.71, 128.09 55 C94.69 58.48, 62.2 59.7, 13.75 55 C3.86 58.28, -3.57 51.18, 0 41.25 C-0.42 31.98, -2.63 22.89, 0 13.75 C0.2 8.08, 2.89 -0.92, 13.75 0" stroke="none" stroke-width="0" fill="#b2f2bb"></path><path d="M13.75 0 C38.06 -1.29, 60.05 -0.08, 128.09 0 M13.75 0 C44.08 -0.09, 73.16 -1.86, 128.09 0 M128.09 0 C135.32 -1.1, 142.12 3.5, 141.84 13.75 M128.09 0 C139.17 -1.63, 142.59 6.54, 141.84 13.75 M141.84 13.75 C141.39 20.22, 143.77 26.74, 141.84 41.25 M141.84 13.75 C141.9 21.78, 141.54 29.33, 141.84 41.25 M141.84 41.25 C143.17 51.55, 136.46 55.08, 128.09 55 M141.84 41.25 C141.51 51.22, 136.67 55.89, 128.09 55 M128.09 55 C90.76 54.8, 49.36 56.45, 13.75 55 M128.09 55 C85.87 55.84, 44.85 56.4, 13.75 55 M13.75 55 C5.04 56.02, 0.7 51.35, 0 41.25 M13.75 55 C3.76 55.41, -0.12 50.7, 0 41.25 M0 41.25 C0.62 36.58, 1.31 30.92, 0 13.75 M0 41.25 C-0.58 35.15, 0.74 28.19, 0 13.75 M0 13.75 C1.99 6.28, 6.47 0.71, 13.75 0 M0 13.75 C1.96 6.08, 5.73 0.79, 13.75 0" stroke="#1e1e1e" stroke-width="4" fill="none"></path></g><g transform="translate(1134.6853150543375 457.392383220199) rotate(0 36 22.5)"><text x="36" y="31.5" font-family="Comic Shanns, monospace, Segoe UI Emoji" font-size="36px" fill="#1e1e1e" text-anchor="middle" style="white-space: pre;" direction="ltr" dominant-baseline="alphabetic">移码</text></g></svg>